<svg width="20" height="20" viewBox="0 0 20 20" fill="none" xmlns="http://www.w3.org/2000/svg">
<rect width="20" height="20" fill="#E5E5E5"/>
<g clip-path="url(#clip0_0_1)">
<rect width="1440" height="8063" transform="translate(-1173 -1214)" fill="#F0F0F6"/>
<rect x="-178" y="-180" width="310" height="225" fill="white"/>
<path d="M-58.2305 9.53516V9.93945C-58.2305 10.5879 -58.3184 11.1699 -58.4941 11.6855C-58.6699 12.2012 -58.918 12.6406 -59.2383 13.0039C-59.5586 13.3633 -59.9414 13.6387 -60.3867 13.8301C-60.8281 14.0215 -61.3184 14.1172 -61.8574 14.1172C-62.3926 14.1172 -62.8828 14.0215 -63.3281 13.8301C-63.7695 13.6387 -64.1523 13.3633 -64.4766 13.0039C-64.8008 12.6406 -65.0527 12.2012 -65.2324 11.6855C-65.4082 11.1699 -65.4961 10.5879 -65.4961 9.93945V9.53516C-65.4961 8.88281 -65.4082 8.30078 -65.2324 7.78906C-65.0566 7.27344 -64.8086 6.83398 -64.4883 6.4707C-64.1641 6.10742 -63.7812 5.83008 -63.3398 5.63867C-62.8945 5.44727 -62.4043 5.35156 -61.8691 5.35156C-61.3301 5.35156 -60.8398 5.44727 -60.3984 5.63867C-59.9531 5.83008 -59.5703 6.10742 -59.25 6.4707C-58.9258 6.83398 -58.6758 7.27344 -58.5 7.78906C-58.3203 8.30078 -58.2305 8.88281 -58.2305 9.53516ZM-60.0059 9.93945V9.52344C-60.0059 9.07031 -60.0469 8.67188 -60.1289 8.32812C-60.2109 7.98438 -60.332 7.69531 -60.4922 7.46094C-60.6523 7.22656 -60.8477 7.05078 -61.0781 6.93359C-61.3086 6.8125 -61.5723 6.75195 -61.8691 6.75195C-62.166 6.75195 -62.4297 6.8125 -62.6602 6.93359C-62.8867 7.05078 -63.0801 7.22656 -63.2402 7.46094C-63.3965 7.69531 -63.5156 7.98438 -63.5977 8.32812C-63.6797 8.67188 -63.7207 9.07031 -63.7207 9.52344V9.93945C-63.7207 10.3887 -63.6797 10.7871 -63.5977 11.1348C-63.5156 11.4785 -63.3945 11.7695 -63.2344 12.0078C-63.0742 12.2422 -62.8789 12.4199 -62.6484 12.541C-62.418 12.6621 -62.1543 12.7227 -61.8574 12.7227C-61.5605 12.7227 -61.2969 12.6621 -61.0664 12.541C-60.8359 12.4199 -60.6426 12.2422 -60.4863 12.0078C-60.3301 11.7695 -60.2109 11.4785 -60.1289 11.1348C-60.0469 10.7871 -60.0059 10.3887 -60.0059 9.93945ZM-56.9648 5.46875H-53.7832C-53.1309 5.46875 -52.5703 5.56641 -52.1016 5.76172C-51.6289 5.95703 -51.2656 6.24609 -51.0117 6.62891C-50.7578 7.01172 -50.6309 7.48242 -50.6309 8.04102C-50.6309 8.49805 -50.709 8.89062 -50.8652 9.21875C-51.0176 9.54297 -51.2344 9.81445 -51.5156 10.0332C-51.793 10.248 -52.1191 10.4199 -52.4941 10.5488L-53.0508 10.8418H-55.8164L-55.8281 9.4707H-53.7715C-53.4629 9.4707 -53.207 9.41602 -53.0039 9.30664C-52.8008 9.19727 -52.6484 9.04492 -52.5469 8.84961C-52.4414 8.6543 -52.3887 8.42773 -52.3887 8.16992C-52.3887 7.89648 -52.4395 7.66016 -52.541 7.46094C-52.6426 7.26172 -52.7969 7.10938 -53.0039 7.00391C-53.2109 6.89844 -53.4707 6.8457 -53.7832 6.8457H-55.207V14H-56.9648V5.46875ZM-52.1953 14L-54.1406 10.1973L-52.2832 10.1855L-50.3145 13.918V14H-52.1953ZM-46.6582 14H-48.5156L-48.5039 12.6289H-46.6582C-46.1973 12.6289 -45.8086 12.5254 -45.4922 12.3184C-45.1758 12.1074 -44.9375 11.8008 -44.7773 11.3984C-44.6133 10.9961 -44.5312 10.5098 -44.5312 9.93945V9.52344C-44.5312 9.08594 -44.5781 8.70117 -44.6719 8.36914C-44.7617 8.03711 -44.8965 7.75781 -45.0762 7.53125C-45.2559 7.30469 -45.4766 7.13477 -45.7383 7.02148C-46 6.9043 -46.3008 6.8457 -46.6406 6.8457H-48.5508V5.46875H-46.6406C-46.0703 5.46875 -45.5488 5.56641 -45.0762 5.76172C-44.5996 5.95312 -44.1875 6.22852 -43.8398 6.58789C-43.4922 6.94727 -43.2246 7.37695 -43.0371 7.87695C-42.8457 8.37305 -42.75 8.92578 -42.75 9.53516V9.93945C-42.75 10.5449 -42.8457 11.0977 -43.0371 11.5977C-43.2246 12.0977 -43.4922 12.5273 -43.8398 12.8867C-44.1836 13.2422 -44.5957 13.5176 -45.0762 13.7129C-45.5527 13.9043 -46.0801 14 -46.6582 14ZM-47.5195 5.46875V14H-49.2773V5.46875H-47.5195ZM-35.748 12.6289V14H-40.2891V12.6289H-35.748ZM-39.7148 5.46875V14H-41.4727V5.46875H-39.7148ZM-36.3398 8.94336V10.2793H-40.2891V8.94336H-36.3398ZM-35.7539 5.46875V6.8457H-40.2891V5.46875H-35.7539ZM-34.7227 5.46875H-31.541C-30.8887 5.46875 -30.3281 5.56641 -29.8594 5.76172C-29.3867 5.95703 -29.0234 6.24609 -28.7695 6.62891C-28.5156 7.01172 -28.3887 7.48242 -28.3887 8.04102C-28.3887 8.49805 -28.4668 8.89062 -28.623 9.21875C-28.7754 9.54297 -28.9922 9.81445 -29.2734 10.0332C-29.5508 10.248 -29.877 10.4199 -30.252 10.5488L-30.8086 10.8418H-33.5742L-33.5859 9.4707H-31.5293C-31.2207 9.4707 -30.9648 9.41602 -30.7617 9.30664C-30.5586 9.19727 -30.4062 9.04492 -30.3047 8.84961C-30.1992 8.6543 -30.1465 8.42773 -30.1465 8.16992C-30.1465 7.89648 -30.1973 7.66016 -30.2988 7.46094C-30.4004 7.26172 -30.5547 7.10938 -30.7617 7.00391C-30.9688 6.89844 -31.2285 6.8457 -31.541 6.8457H-32.9648V14H-34.7227V5.46875ZM-29.9531 14L-31.8984 10.1973L-30.041 10.1855L-28.0723 13.918V14H-29.9531ZM-17.1035 5.46875V14H-18.8613L-22.2891 8.28125V14H-24.0469V5.46875H-22.2891L-18.8555 11.1934V5.46875H-17.1035ZM-8.56641 9.53516V9.93945C-8.56641 10.5879 -8.6543 11.1699 -8.83008 11.6855C-9.00586 12.2012 -9.25391 12.6406 -9.57422 13.0039C-9.89453 13.3633 -10.2773 13.6387 -10.7227 13.8301C-11.1641 14.0215 -11.6543 14.1172 -12.1934 14.1172C-12.7285 14.1172 -13.2188 14.0215 -13.6641 13.8301C-14.1055 13.6387 -14.4883 13.3633 -14.8125 13.0039C-15.1367 12.6406 -15.3887 12.2012 -15.5684 11.6855C-15.7441 11.1699 -15.832 10.5879 -15.832 9.93945V9.53516C-15.832 8.88281 -15.7441 8.30078 -15.5684 7.78906C-15.3926 7.27344 -15.1445 6.83398 -14.8242 6.4707C-14.5 6.10742 -14.1172 5.83008 -13.6758 5.63867C-13.2305 5.44727 -12.7402 5.35156 -12.2051 5.35156C-11.666 5.35156 -11.1758 5.44727 -10.7344 5.63867C-10.2891 5.83008 -9.90625 6.10742 -9.58594 6.4707C-9.26172 6.83398 -9.01172 7.27344 -8.83594 7.78906C-8.65625 8.30078 -8.56641 8.88281 -8.56641 9.53516ZM-10.3418 9.93945V9.52344C-10.3418 9.07031 -10.3828 8.67188 -10.4648 8.32812C-10.5469 7.98438 -10.668 7.69531 -10.8281 7.46094C-10.9883 7.22656 -11.1836 7.05078 -11.4141 6.93359C-11.6445 6.8125 -11.9082 6.75195 -12.2051 6.75195C-12.502 6.75195 -12.7656 6.8125 -12.9961 6.93359C-13.2227 7.05078 -13.416 7.22656 -13.5762 7.46094C-13.7324 7.69531 -13.8516 7.98438 -13.9336 8.32812C-14.0156 8.67188 -14.0566 9.07031 -14.0566 9.52344V9.93945C-14.0566 10.3887 -14.0156 10.7871 -13.9336 11.1348C-13.8516 11.4785 -13.7305 11.7695 -13.5703 12.0078C-13.4102 12.2422 -13.2148 12.4199 -12.9844 12.541C-12.7539 12.6621 -12.4902 12.7227 -12.1934 12.7227C-11.8965 12.7227 -11.6328 12.6621 -11.4023 12.541C-11.1719 12.4199 -10.9785 12.2422 -10.8223 12.0078C-10.666 11.7695 -10.5469 11.4785 -10.4648 11.1348C-10.3828 10.7871 -10.3418 10.3887 -10.3418 9.93945ZM-5.24414 12.6465L-3.54492 5.46875H-2.5957L-2.37891 6.66406L-4.18945 14H-5.20898L-5.24414 12.6465ZM-6.11719 5.46875L-4.71094 12.6465L-4.82812 14H-5.96484L-7.85742 5.46875H-6.11719ZM-0.884766 12.6172L0.503906 5.46875H2.24414L0.357422 14H-0.779297L-0.884766 12.6172ZM-2.0625 5.46875L-0.351562 12.6758L-0.398438 14H-1.41797L-3.24023 6.6582L-3.00586 5.46875H-2.0625Z" fill="#FFB400"/>
<g clip-path="url(#clip1_0_1)">
<path d="M10.1431 10.0002L7.78564 7.64352L8.96398 6.46436L12.4998 10.0002L8.96398 13.536L7.78564 12.3569L10.1431 10.0002Z" fill="#FFB400"/>
</g>
</g>
<defs>
<clipPath id="clip0_0_1">
<rect width="1440" height="8063" fill="white" transform="translate(-1173 -1214)"/>
</clipPath>
<clipPath id="clip1_0_1">
<rect width="20" height="20" fill="white"/>
</clipPath>
</defs>
</svg>
